<svg id="Слой_1" data-name="Слой 1" xmlns="http://www.w3.org/2000/svg" viewBox="0 0 1215.48 357.26"><defs><style>.cls-1{fill:#fff;}</style></defs><path class="cls-1" d="M537.44,240.94H590v69.48H573.77v-55H552.33l-1.19,20.84q-.69,11.82-3.87,19a25,25,0,0,1-8.53,10.87,35.77,35.77,0,0,1-13.4,5.26l-3.58-14a22.34,22.34,0,0,0,7.6-3.62q2.63-2.13,4.12-7t2-14.14Z" transform="translate(-71.18 -205.37)"/><path class="cls-1" d="M644.29,264.91q6.3,4.62,6.3,14.74v30.77H636.4q0-4,.49-8.94h-.3a15.6,15.6,0,0,1-6.45,7.15,19.41,19.41,0,0,1-10.22,2.68,18.33,18.33,0,0,1-12.5-4.32,14.55,14.55,0,0,1-5-11.56q0-7.65,5.51-11.91t14.24-4.27a36.89,36.89,0,0,1,6.95.65,21.45,21.45,0,0,1,5.86,1.93v-1q0-4.56-2.88-6.65t-8.44-2.08a46.51,46.51,0,0,0-14.89,2.77l-2.87-10.81a54,54,0,0,1,9.72-2.88,52.92,52.92,0,0,1,10-.9Q638,260.29,644.29,264.91Zm-12.46,32.21a9,9,0,0,0,3.47-6.06,18.49,18.49,0,0,0-4.76-1.73,22.57,22.57,0,0,0-5.06-.65,9.61,9.61,0,0,0-5.51,1.39,4.6,4.6,0,0,0-2,4.07,4.34,4.34,0,0,0,2,3.82,8.7,8.7,0,0,0,5,1.34A11.19,11.19,0,0,0,631.83,297.12Z" transform="translate(-71.18 -205.37)"/><path class="cls-1" d="M669,303.47q-7.1-8-7.1-23.52v-2q0-15.87,7.74-25.21t22.73-11.81q6.86-1.19,9.73-2a42.89,42.89,0,0,0,6.85-2.83l5.65,12.31a44,44,0,0,1-8.53,4,60.8,60.8,0,0,1-11,2.29q-9.33,1.19-13.89,5t-5.26,12.16l.29.1a16.59,16.59,0,0,1,7.15-6.85,22.69,22.69,0,0,1,10.12-2.18q10.62,0,16.48,6.4t5.85,16.82q0,11.81-7.29,18.61t-20,6.8Q676.1,311.51,669,303.47Zm28.48-8a11.72,11.72,0,0,0,3-8.44q0-5.46-3-8.58t-8.38-3.13c-3.58,0-6.37,1-8.39,3.13a11.66,11.66,0,0,0-3,8.48,11.86,11.86,0,0,0,3,8.54c2,2.12,4.85,3.17,8.49,3.17A10.89,10.89,0,0,0,697.48,295.43Z" transform="translate(-71.18 -205.37)"/><path class="cls-1" d="M737,308.38a22,22,0,0,1-9.18-8.88,29,29,0,0,1,.15-26.85,23,23,0,0,1,9.63-9.13,31.19,31.19,0,0,1,14.49-3.23,29.73,29.73,0,0,1,14,3.13,22.08,22.08,0,0,1,9.18,8.88,29,29,0,0,1-.15,26.9,23,23,0,0,1-9.57,9.08A31.14,31.14,0,0,1,751,311.51,29.66,29.66,0,0,1,737,308.38Zm22.88-13.2a12.79,12.79,0,0,0,3.23-9,14.06,14.06,0,0,0-3.13-9.43,10.23,10.23,0,0,0-8.19-3.67,11.09,11.09,0,0,0-8.53,3.52,12.66,12.66,0,0,0-3.28,9,13.89,13.89,0,0,0,3.18,9.43,10.35,10.35,0,0,0,8.23,3.67A11,11,0,0,0,759.91,295.18Z" transform="translate(-71.18 -205.37)"/><path class="cls-1" d="M790.53,331.65V261.39h14.69a52,52,0,0,1-.8,8.93h.2a20.23,20.23,0,0,1,17.57-10,21,21,0,0,1,19.4,11.92,29.38,29.38,0,0,1,2.93,13.49,28.73,28.73,0,0,1-3,13.4,22.79,22.79,0,0,1-8.29,9.13,22,22,0,0,1-11.91,3.28,19.74,19.74,0,0,1-9.77-2.29,14.36,14.36,0,0,1-6.1-6.25l-.3.1a64.32,64.32,0,0,1,1,12.31v16.27Zm35.13-36.52a12.4,12.4,0,0,0,3.38-9,13.28,13.28,0,0,0-3.28-9.33,11,11,0,0,0-8.53-3.57,10.61,10.61,0,0,0-8.19,3.52,12.79,12.79,0,0,0-3.23,9q0,5.87,3.08,9.38A10.26,10.26,0,0,0,817,298.6,11.5,11.5,0,0,0,825.66,295.13Z" transform="translate(-71.18 -205.37)"/><path class="cls-1" d="M894.79,264.91q6.3,4.62,6.3,14.74v30.77H886.9q0-4,.49-8.94h-.29a15.68,15.68,0,0,1-6.46,7.15,19.41,19.41,0,0,1-10.22,2.68,18.33,18.33,0,0,1-12.5-4.32,14.55,14.55,0,0,1-5-11.56q0-7.65,5.51-11.91t14.25-4.27a36.87,36.87,0,0,1,6.94.65,21.45,21.45,0,0,1,5.86,1.93v-1q0-4.56-2.88-6.65t-8.44-2.08a46.41,46.41,0,0,0-14.88,2.77l-2.88-10.81a54,54,0,0,1,9.72-2.88,53,53,0,0,1,10-.9Q888.48,260.29,894.79,264.91Zm-12.46,32.21a9,9,0,0,0,3.48-6.06,18.71,18.71,0,0,0-4.77-1.73,22.57,22.57,0,0,0-5.06-.65,9.61,9.61,0,0,0-5.51,1.39,4.63,4.63,0,0,0-2,4.07,4.34,4.34,0,0,0,2,3.82,8.72,8.72,0,0,0,5,1.34A11.19,11.19,0,0,0,882.33,297.12Z" transform="translate(-71.18 -205.37)"/><path class="cls-1" d="M954.29,261.39v13.1H939.8v35.93H924.31V274.49H909.82v-13.1Z" transform="translate(-71.18 -205.37)"/><path class="cls-1" d="M972.65,308.38a22,22,0,0,1-9.18-8.88,28.92,28.92,0,0,1,.15-26.85,22.87,22.87,0,0,1,9.62-9.13,31.19,31.19,0,0,1,14.49-3.23,29.78,29.78,0,0,1,14,3.13,22.08,22.08,0,0,1,9.18,8.88,29.1,29.1,0,0,1-.15,26.9,23,23,0,0,1-9.58,9.08,31.08,31.08,0,0,1-14.54,3.23A29.61,29.61,0,0,1,972.65,308.38Zm22.87-13.2a12.79,12.79,0,0,0,3.23-9,14,14,0,0,0-3.13-9.43,10.21,10.21,0,0,0-8.18-3.67,11.11,11.11,0,0,0-8.54,3.52,12.7,12.7,0,0,0-3.28,9A13.89,13.89,0,0,0,978.8,295,10.37,10.37,0,0,0,987,298.7,11,11,0,0,0,995.52,295.18Z" transform="translate(-71.18 -205.37)"/><path class="cls-1" d="M1026.14,331.65V261.39h14.69a52,52,0,0,1-.79,8.93h.2a20.2,20.2,0,0,1,17.56-10,21,21,0,0,1,19.41,11.92,29.38,29.38,0,0,1,2.92,13.49,28.85,28.85,0,0,1-3,13.4,22.79,22.79,0,0,1-8.29,9.13,22,22,0,0,1-11.91,3.28,19.81,19.81,0,0,1-9.78-2.29A14.42,14.42,0,0,1,1041,303l-.3.1a64.32,64.32,0,0,1,1,12.31v16.27Zm35.14-36.52a12.43,12.43,0,0,0,3.37-9,13.27,13.27,0,0,0-3.27-9.33,11.06,11.06,0,0,0-8.54-3.57,10.61,10.61,0,0,0-8.19,3.52,12.78,12.78,0,0,0-3.22,9q0,5.87,3.07,9.38a10.28,10.28,0,0,0,8.14,3.52A11.5,11.5,0,0,0,1061.28,295.13Z" transform="translate(-71.18 -205.37)"/><path class="cls-1" d="M1092,310.42v-49h15.49v14.88c0,3.31-.14,7-.4,10.92l.3.1a88.57,88.57,0,0,1,6.65-9.33l13.49-16.57h13.5v49h-15.48V294.93q0-4.06.3-10l-.3-.1q-2.58,4.06-6.95,9.63l-13,16Z" transform="translate(-71.18 -205.37)"/><path class="cls-1" d="M1198.73,261.39v49h-15.48v-14.1h-5.06l-9.73,14.1h-16.57l12-16.18a16.47,16.47,0,0,1-7.1-5.91,15.84,15.84,0,0,1-2.53-9q0-8.34,5.26-13.15t13.8-4.81Zm-23.12,12.4a5.88,5.88,0,0,0-4.42,1.59,5.14,5.14,0,0,0-1.54,3.67,5.48,5.48,0,0,0,6,5.76h7.94v-11Z" transform="translate(-71.18 -205.37)"/><path class="cls-1" d="M525.34,438.18V367.91H540a52,52,0,0,1-.8,8.93h.2a20.25,20.25,0,0,1,17.57-10,21.54,21.54,0,0,1,11.41,3.08,21.32,21.32,0,0,1,8,8.83,29.42,29.42,0,0,1,2.93,13.5,28.71,28.71,0,0,1-3,13.39,22.79,22.79,0,0,1-8.29,9.13A22,22,0,0,1,556.1,418a19.85,19.85,0,0,1-9.77-2.28,14.49,14.49,0,0,1-6.11-6.25l-.29.09a64.32,64.32,0,0,1,1,12.31v16.28Zm35.13-36.53a12.4,12.4,0,0,0,3.38-9,13.3,13.3,0,0,0-3.28-9.33,11,11,0,0,0-8.54-3.57,10.64,10.64,0,0,0-8.18,3.52,12.81,12.81,0,0,0-3.23,9q0,5.85,3.08,9.37a10.27,10.27,0,0,0,8.14,3.53A11.51,11.51,0,0,0,560.47,401.65Z" transform="translate(-71.18 -205.37)"/><path class="cls-1" d="M600.47,414.9a22,22,0,0,1-9.18-8.88,28.92,28.92,0,0,1,.15-26.85,22.87,22.87,0,0,1,9.62-9.13,31.19,31.19,0,0,1,14.49-3.22,29.77,29.77,0,0,1,14,3.12,22,22,0,0,1,9.18,8.89,29.08,29.08,0,0,1-.15,26.89A23,23,0,0,1,629,414.8,31.08,31.08,0,0,1,614.46,418,29.61,29.61,0,0,1,600.47,414.9Zm22.87-13.2a12.77,12.77,0,0,0,3.23-9,14,14,0,0,0-3.13-9.43,10.24,10.24,0,0,0-8.18-3.67,11.12,11.12,0,0,0-8.54,3.53,12.67,12.67,0,0,0-3.28,9,13.86,13.86,0,0,0,3.18,9.42,10.38,10.38,0,0,0,8.24,3.68A11,11,0,0,0,623.34,401.7Z" transform="translate(-71.18 -205.37)"/><path class="cls-1" d="M657.88,410q-7.1-8-7.09-23.52v-2q0-15.87,7.74-25.2t22.72-11.82q6.86-1.18,9.73-2a42,42,0,0,0,6.85-2.83l5.66,12.31a45,45,0,0,1-8.54,4,60.05,60.05,0,0,1-11,2.28q-9.33,1.2-13.89,5t-5.26,12.16l.3.1a16.57,16.57,0,0,1,7.14-6.85,22.84,22.84,0,0,1,10.13-2.18q10.62,0,16.47,6.4t5.86,16.82q0,11.82-7.3,18.61t-20,6.8Q665,418,657.88,410Zm28.49-8a11.75,11.75,0,0,0,3-8.43c0-3.64-1-6.51-3-8.59s-4.82-3.12-8.39-3.12-6.37,1-8.39,3.12-3,4.91-3,8.49a11.84,11.84,0,0,0,3,8.53q3,3.18,8.49,3.18A10.92,10.92,0,0,0,686.37,402Z" transform="translate(-71.18 -205.37)"/><path class="cls-1" d="M725.92,414.9a21.91,21.91,0,0,1-9.18-8.88,29,29,0,0,1,.14-26.85,23,23,0,0,1,9.63-9.13A31.19,31.19,0,0,1,741,366.82a29.77,29.77,0,0,1,14,3.12,22,22,0,0,1,9.18,8.89,29.08,29.08,0,0,1-.15,26.89,23,23,0,0,1-9.58,9.08A31.11,31.11,0,0,1,739.91,418,29.61,29.61,0,0,1,725.92,414.9Zm22.87-13.2a12.77,12.77,0,0,0,3.23-9,14,14,0,0,0-3.13-9.43,10.25,10.25,0,0,0-8.19-3.67,11.11,11.11,0,0,0-8.53,3.53,12.67,12.67,0,0,0-3.28,9,13.86,13.86,0,0,0,3.18,9.42,10.38,10.38,0,0,0,8.24,3.68A11,11,0,0,0,748.79,401.7Z" transform="translate(-71.18 -205.37)"/><path class="cls-1" d="M817.92,367.91V381H803.43v35.93H788V381H773.46v-13.1Z" transform="translate(-71.18 -205.37)"/><path class="cls-1" d="M836.28,414.9A22,22,0,0,1,827.1,406a28.92,28.92,0,0,1,.15-26.85,23,23,0,0,1,9.63-9.13,31.13,31.13,0,0,1,14.49-3.22,29.73,29.73,0,0,1,14,3.12,22,22,0,0,1,9.18,8.89,29,29,0,0,1-.15,26.89,23,23,0,0,1-9.58,9.08A31.08,31.08,0,0,1,850.27,418,29.64,29.64,0,0,1,836.28,414.9Zm22.88-13.2a12.76,12.76,0,0,0,3.22-9,14.08,14.08,0,0,0-3.12-9.43,10.28,10.28,0,0,0-8.19-3.67,11.13,11.13,0,0,0-8.54,3.53,12.66,12.66,0,0,0-3.27,9,13.91,13.91,0,0,0,3.17,9.42,10.4,10.4,0,0,0,8.24,3.68A11,11,0,0,0,859.16,401.7Z" transform="translate(-71.18 -205.37)"/><path class="cls-1" d="M928.28,367.91V381H913.79v35.93H898.31V381H883.82v-13.1Z" transform="translate(-71.18 -205.37)"/><path class="cls-1" d="M984.26,396.89H949.92a9.34,9.34,0,0,0,4.17,6.7,14,14,0,0,0,8,2.43,20.83,20.83,0,0,0,13.3-4.56l6.65,9.23a24.07,24.07,0,0,1-9.19,5.45A35.34,35.34,0,0,1,961.33,418a32,32,0,0,1-13.84-2.88,22.4,22.4,0,0,1-9.68-8.63,26.06,26.06,0,0,1-3.57-14,25.53,25.53,0,0,1,3.67-13.94,23.66,23.66,0,0,1,9.73-8.78,29.19,29.19,0,0,1,13.1-3,27,27,0,0,1,12.4,2.78,20.48,20.48,0,0,1,8.59,8.19,25.47,25.47,0,0,1,3.12,12.95A31,31,0,0,1,984.26,396.89ZM953.19,381a9.92,9.92,0,0,0-3.27,7.1h20.15q.09-4.67-2.68-7.1a10.35,10.35,0,0,0-7-2.43A10.7,10.7,0,0,0,953.19,381Z" transform="translate(-71.18 -205.37)"/><path class="cls-1" d="M1025.64,391.93l16.68,25h-17.77l-4.07-6.95c-2.77-4.63-4.4-7.77-4.86-9.43h-.2c-.39,1.33-2,4.5-4.86,9.53l-4.17,6.85H989l16.68-24.81-15.59-24.22h17.37l4.37,7.44a41,41,0,0,1,3.67,7.55h.2a64.4,64.4,0,0,1,3.77-7.55l4.47-7.44h16.87Z" transform="translate(-71.18 -205.37)"/><path class="cls-1" d="M1085.09,385.18V367.91h15.59v49h-15.59V398.28H1067v18.66h-15.58v-49H1067v17.27Z" transform="translate(-71.18 -205.37)"/><path class="cls-1" d="M1115.86,416.94v-49h15.48V382.8c0,3.31-.13,6.94-.39,10.91l.3.1a90.06,90.06,0,0,1,6.64-9.33l13.5-16.57h13.5v49h-15.48V401.46q0-4.08.3-10l-.3-.1c-1.72,2.72-4,5.92-7,9.63l-13,16Z" transform="translate(-71.18 -205.37)"/><path class="cls-1" d="M1208.56,391.63l21.24,25.31h-19.06l-9.23-11.51q-3.18-4.08-6-8.54l-.3.1q.3,3.27.3,8.63v11.32h-15.39v-49h15.39v11.31q0,3-.3,7.65l.3.1q3.27-4.77,5.46-7.75l8.33-11.31h17.47Z" transform="translate(-71.18 -205.37)"/><path class="cls-1" d="M1237.64,416.94v-49h15.48V382.8c0,3.31-.13,6.94-.4,10.91l.3.1a91.58,91.58,0,0,1,6.65-9.33l13.5-16.57h13.5v49h-15.49V401.46q0-4.08.3-10l-.3-.1c-1.72,2.72-4,5.92-6.94,9.63l-13,16Z" transform="translate(-71.18 -205.37)"/><path class="cls-1" d="M525.34,523.46v-49h15.48v14.89q0,5-.4,10.92l.3.1a90.48,90.48,0,0,1,6.65-9.33l13.5-16.58h13.5v49H558.88V508c0-2.71.1-6.06.3-10l-.3-.1q-2.58,4.06-6.94,9.62l-13,16Z" transform="translate(-71.18 -205.37)"/><path class="cls-1" d="M615.25,523.46v-49h14.69l11,14.2,4.17,5.55h.2q1.29-1.87,4.26-5.75l10.82-14H675.1v49H659.82V505.89a85.56,85.56,0,0,1,.59-10l-.29-.1a72.54,72.54,0,0,1-5.46,7.25l-8.34,10.12h-2.18L635.7,503a66.65,66.65,0,0,1-5.46-7.25l-.3.1a90.28,90.28,0,0,1,.5,10.22v17.37Z" transform="translate(-71.18 -205.37)"/><path class="cls-1" d="M737.13,503.41H702.79a9.34,9.34,0,0,0,4.17,6.7,13.89,13.89,0,0,0,8,2.43A20.81,20.81,0,0,0,728.3,508l6.65,9.23a24.24,24.24,0,0,1-9.18,5.46,35.7,35.7,0,0,1-11.57,1.88,32.19,32.19,0,0,1-13.84-2.87,22.42,22.42,0,0,1-9.68-8.64,26,26,0,0,1-3.57-14,25.54,25.54,0,0,1,3.67-13.95,23.66,23.66,0,0,1,9.73-8.78,29.19,29.19,0,0,1,13.1-3,27,27,0,0,1,12.4,2.78,20.42,20.42,0,0,1,8.59,8.19,25.5,25.5,0,0,1,3.13,12.95A31,31,0,0,1,737.13,503.41Zm-31.06-15.93a10,10,0,0,0-3.28,7.1h20.15c.06-3.11-.83-5.47-2.68-7.1a10.35,10.35,0,0,0-7-2.43A10.67,10.67,0,0,0,706.07,487.48Z" transform="translate(-71.18 -205.37)"/><path class="cls-1" d="M778.52,498.45l16.67,25H777.43l-4.07-7q-4.17-6.94-4.87-9.42h-.2q-.59,2-4.86,9.52l-4.17,6.85H741.89l16.68-24.81L743,474.43h17.36l4.37,7.45a41,41,0,0,1,3.67,7.54h.2a63.71,63.71,0,0,1,3.77-7.54l4.47-7.45H793.7Z" transform="translate(-71.18 -205.37)"/><path class="cls-1" d="M842,478q6.3,4.6,6.3,14.74v30.76H834.1q0-4,.49-8.93h-.29a15.68,15.68,0,0,1-6.46,7.15,19.51,19.51,0,0,1-10.22,2.68,18.33,18.33,0,0,1-12.5-4.32,14.55,14.55,0,0,1-5-11.56q0-7.65,5.51-11.91t14.25-4.27a36.87,36.87,0,0,1,6.94.64,21.45,21.45,0,0,1,5.86,1.94v-1c0-3.05-1-5.26-2.88-6.65s-4.73-2.09-8.44-2.09a46.44,46.44,0,0,0-14.88,2.78l-2.88-10.82a55.62,55.62,0,0,1,9.72-2.88,53.86,53.86,0,0,1,10-.89Q835.68,473.34,842,478Zm-12.46,32.2a9,9,0,0,0,3.48-6.05,18.71,18.71,0,0,0-4.77-1.74,22.51,22.51,0,0,0-5.06-.64,9.61,9.61,0,0,0-5.51,1.39,4.62,4.62,0,0,0-2,4.07,4.35,4.35,0,0,0,2,3.82,8.72,8.72,0,0,0,5,1.34A11.13,11.13,0,0,0,829.53,510.16Z" transform="translate(-71.18 -205.37)"/><path class="cls-1" d="M901.49,474.43v13.1H887v35.93H871.51V487.53H857v-13.1Z" transform="translate(-71.18 -205.37)"/><path class="cls-1" d="M912.5,544.7V474.43h14.69a52.07,52.07,0,0,1-.79,8.94h.2a20.2,20.2,0,0,1,17.56-10,21,21,0,0,1,19.41,11.91,29.45,29.45,0,0,1,2.92,13.5,28.88,28.88,0,0,1-3,13.4,22.92,22.92,0,0,1-8.29,9.13,22.11,22.11,0,0,1-11.91,3.27,19.91,19.91,0,0,1-9.78-2.28,14.42,14.42,0,0,1-6.1-6.25l-.3.1a64.28,64.28,0,0,1,1,12.3V544.7Zm35.14-36.52a12.42,12.42,0,0,0,3.37-9,13.27,13.27,0,0,0-3.27-9.33,11,11,0,0,0-8.54-3.58,10.62,10.62,0,0,0-8.19,3.53,12.78,12.78,0,0,0-3.22,9q0,5.85,3.07,9.38a10.28,10.28,0,0,0,8.14,3.52A11.54,11.54,0,0,0,947.64,508.18Z" transform="translate(-71.18 -205.37)"/><path class="cls-1" d="M987.63,521.43a22,22,0,0,1-9.18-8.89,29,29,0,0,1,.15-26.84,22.89,22.89,0,0,1,9.63-9.13,31.19,31.19,0,0,1,14.49-3.23,29.61,29.61,0,0,1,14,3.13,22,22,0,0,1,9.18,8.88,29.06,29.06,0,0,1-.14,26.9,23.13,23.13,0,0,1-9.58,9.08,31.11,31.11,0,0,1-14.54,3.22A29.77,29.77,0,0,1,987.63,521.43Zm22.88-13.2a12.8,12.8,0,0,0,3.23-9,14.06,14.06,0,0,0-3.13-9.43,10.23,10.23,0,0,0-8.19-3.68,11.1,11.1,0,0,0-8.53,3.53,12.64,12.64,0,0,0-3.28,9,13.89,13.89,0,0,0,3.18,9.43,10.35,10.35,0,0,0,8.23,3.67A11,11,0,0,0,1010.51,508.23Z" transform="translate(-71.18 -205.37)"/><path class="cls-1" d="M1074.77,491.7V474.43h15.58v49h-15.58V504.8h-18.06v18.66h-15.58v-49h15.58V491.7Z" transform="translate(-71.18 -205.37)"/><path class="cls-1" d="M1105.54,523.46v-49H1121v14.89q0,5-.4,10.92l.3.1a90.48,90.48,0,0,1,6.65-9.33l13.5-16.58h13.5v49h-15.49V508c0-2.71.1-6.06.3-10l-.3-.1q-2.58,4.06-6.94,9.62l-13,16Z" transform="translate(-71.18 -205.37)"/><path class="cls-1" d="M1198.24,498.15l21.24,25.31h-19.06L1191.19,512q-3.18-4.06-6-8.54l-.3.1c.2,2.19.3,5.06.3,8.64v11.31h-15.39v-49h15.39v11.32q0,3-.3,7.64l.3.1q3.27-4.77,5.45-7.74l8.34-11.32h17.47Z" transform="translate(-71.18 -205.37)"/><path class="cls-1" d="M1227.32,523.46v-49h15.48v14.89q0,5-.4,10.92l.3.1a90.48,90.48,0,0,1,6.65-9.33l13.5-16.58h13.49v49h-15.48V508c0-2.71.1-6.06.3-10l-.3-.1a118.47,118.47,0,0,1-6.95,9.62l-13,16Z" transform="translate(-71.18 -205.37)"/><path class="cls-1" d="M388.74,205.37H110.88a39.82,39.82,0,0,0-39.7,39.7V522.93a39.82,39.82,0,0,0,39.7,39.7H388.74a39.82,39.82,0,0,0,39.7-39.7V245.07A39.81,39.81,0,0,0,388.74,205.37Zm-62.85,291.1A33.08,33.08,0,1,1,359,463.39,33.08,33.08,0,0,1,325.89,496.47Zm32.93-182.21c0,.31-.07.61-.1.91-.09.72-.2,1.44-.33,2.14-.06.31-.11.62-.18.92-.19.9-.42,1.79-.68,2.67-.06.19-.13.38-.19.57q-.37,1.13-.81,2.22l-.46,1.05c-.24.53-.49,1.05-.76,1.56s-.36.71-.55,1.06c-.34.59-.69,1.17-1.06,1.74s-.63.94-1,1.4-.64.89-1,1.31-.6.72-.9,1.08-.62.69-.95,1-.65.69-1,1-.78.73-1.18,1.08c-.56.49-1.13,1-1.72,1.41-.38.29-.75.58-1.14.86s-.8.54-1.21.8-.79.49-1.19.73-.81.47-1.23.69c-.59.31-1.2.6-1.81.87-.18.08-.34.18-.52.25a97.21,97.21,0,0,1-22.62,32.45c-1.19,1.15-2.41,2.25-3.64,3.27a94.26,94.26,0,0,1-13.79,9.86h0a95.56,95.56,0,0,1-42.14,13.06c-2.28.2-4.56.27-6.88.27-1,0-1.92,0-2.88.07-.72,0-1.42.06-2.15.13s-1.39.1-2.05.16a70,70,0,0,0-16.84,3.81c-.92.33-1.81.69-2.71,1.06s-1.62.69-2.41,1.05c-.17.07-.3.14-.47.2-.82.4-1.65.8-2.48,1.23s-1.75.89-2.58,1.39a8.3,8.3,0,0,0-1,.56c-1.09.63-2.11,1.26-3.14,1.95a.74.74,0,0,0-.16.1c-1.23.83-2.42,1.65-3.54,2.55s-2.35,1.82-3.44,2.78-2.22,1.95-3.28,3-2.08,2.08-3,3.17a43.68,43.68,0,0,0-2.88,3.41c-.79,1-1.55,2-2.25,3-1,1.36-1.88,2.76-2.76,4.19a33.18,33.18,0,0,1,15.75,19.94,2.68,2.68,0,0,1,.07.27,31.43,31.43,0,0,1,.79,3.79c0,.24.08.47.11.71a32.44,32.44,0,0,1,.3,4.2s0,0,0,.07,0,0,0,0c0,1.07-.07,2.13-.17,3.18,0,.11,0,.22,0,.33-.1,1-.26,2-.45,3,0,.06,0,.12,0,.18A33.11,33.11,0,0,1,184,494.85a33.06,33.06,0,0,1-28.91-4.17,33.09,33.09,0,0,1-4.7-4l-.05-.05a29.76,29.76,0,0,1-2.07-2.28l-.12-.15a33.19,33.19,0,0,1-4.78-7.84c0-.09-.08-.17-.11-.26-.31-.73-.57-1.48-.82-2.24-.15-.41-.29-.83-.41-1.26-.2-.67-.37-1.34-.52-2s-.24-1.19-.34-1.79-.2-1.16-.27-1.76a31.1,31.1,0,0,1-.2-3.22c0-.15,0-.29,0-.44v-.11c0-.1,0-.2,0-.31,0-.85.05-1.69.12-2.53,0-.47.1-.94.16-1.41s.13-.85.2-1.27A33.09,33.09,0,0,1,160.5,433V341.53a33.08,33.08,0,1,1,26.46,0v55.52a94.67,94.67,0,0,1,13.79-9.84h0a95.06,95.06,0,0,1,42.37-13.1l0,0h.29c2.09-.17,4.2-.24,6.32-.24a70.05,70.05,0,0,0,60-33.74A33.25,33.25,0,0,1,306.5,338l-.71-.54a33.25,33.25,0,0,1-2.57-2.18c-.15-.15-.32-.28-.47-.43a32.91,32.91,0,0,1-2.63-2.9l-.49-.66c-.64-.83-1.23-1.69-1.79-2.58-.19-.31-.38-.62-.56-.93a31.83,31.83,0,0,1-1.61-3.13c-.05-.13-.13-.25-.18-.39a31.9,31.9,0,0,1-1.33-3.74c-.1-.33-.17-.66-.26-1-.25-1-.46-2-.63-3-.06-.38-.13-.75-.17-1.14A33.06,33.06,0,1,1,359,311.23C359,312.25,358.91,313.26,358.82,314.26Z" transform="translate(-71.18 -205.37)"/></svg>